<?xml version="1.0" encoding="UTF-8"?>
<svg id="Layer_1" data-name="Layer 1" xmlns="http://www.w3.org/2000/svg" xmlns:xlink="http://www.w3.org/1999/xlink" viewBox="0 0 3509.19 3562">
  <defs>
    <style>
      .cls-1 {
        fill: url(#linear-gradient);
      }
    </style>
    <linearGradient id="linear-gradient" x1="124.73" y1="2380.85" x2="3385.22" y2="1181.38" gradientUnits="userSpaceOnUse">
      <stop offset="0" stop-color="#1c75db"/>
      <stop offset=".26" stop-color="#1e80dc"/>
      <stop offset=".72" stop-color="#259de0"/>
      <stop offset=".9" stop-color="#29abe2"/>
    </linearGradient>
  </defs>
  <path class="cls-1" d="M2191.54,2.74h-867.63S641.76-70.08,355.02,535.26c0,0-241.23,436.94,127.44,946.71l496.11,559.83H0l509.77,573.49H2043.62v-796.51l546.18,623.55s195.71,209.37,0,418.74c0,0-104.68,127.44-341.36,131.99H837.47l500.92,568.94h951.01s873.89-4.55,946.71-823.82c0,0,104.68-350.46-304.95-782.85l-382.33-436.94h960.36l-496.11-573.49H1474.68v801.06l-543.27-628.54c-184.77-213.77-32.91-545.74,249.64-545.74h1504.33L2191.54,2.74Z"/>
</svg>