<?xml version="1.0" encoding="UTF-8"?>
<svg id="Layer_1" data-name="Layer 1" xmlns="http://www.w3.org/2000/svg" viewBox="0 0 1555 1901.88">
  <defs>
    <style>
      .cls-1 {
        fill: #fff;
      }
    </style>
  </defs>
  <path class="cls-1" d="M924.47,.92h-291.36s-229.07-24.45-325.36,178.83c0,0-81.01,146.73,42.8,317.91l166.6,188H188.53l171.18,192.58H874.8v-267.47l183.41,209.39s65.72,70.31,0,140.62c0,0-35.15,42.8-114.63,44.32H469.76l168.21,191.05h319.36s293.46-1.53,317.91-276.64c0,0,35.15-117.69-102.4-262.89l-128.39-146.73h322.5l-166.6-192.58H683.74v269l-182.44-211.07c-62.05-71.78-11.05-183.26,83.83-183.26h505.17L924.47,.92Z"/>
  <g>
    <path class="cls-1" d="M85.58,1385.41h71.09c22.03,0,40.82,8.53,56.38,25.59,15.54,17.06,23.32,36.9,23.32,59.55v13.13h-67.02v-13.13c0-4.83-1.74-8.98-5.21-12.45-3.47-3.47-7.63-5.21-12.45-5.21H85.58c-5.14,0-9.51,1.74-13.13,5.21-3.62,3.47-5.43,7.63-5.43,12.45v48c0,3.62,.6,5.74,1.81,6.34,.3,.3,1.36,.45,3.17,.45s3.17-.15,4.08-.45l59.32-14.04c6.94-1.51,12.23-2.26,15.85-2.26,22.94,0,42.86,8.31,59.77,24.91,16.9,16.6,25.36,36.53,25.36,59.77v28.98c0,23.55-8.38,43.63-25.13,60.23-16.75,16.61-36.76,24.91-60,24.91H85.13c-23.55,0-43.63-8.3-60.23-24.91-16.6-16.6-24.91-36.68-24.91-60.23v-2.72H67.02v2.72c0,4.83,1.81,9.06,5.43,12.68,3.62,3.62,7.85,5.43,12.68,5.43h66.11c4.83,0,9.06-1.81,12.68-5.43s5.43-7.85,5.43-12.68v-28.98c0-9.35-5.14-15.4-15.39-18.11l-62.49,15.4c-5.14,1.51-11.48,2.26-19.02,2.26-16.6,0-31.4-5.13-44.37-15.4-18.72-15.4-28.08-35.02-28.08-58.87v-47.55c0-23.55,8.38-43.7,25.13-60.45,16.75-16.76,36.91-25.13,60.45-25.13Z"/>
    <path class="cls-1" d="M284.38,1385.41h151.24c23.24,0,43.17,8.31,59.77,24.91,16.6,16.6,24.91,36.68,24.91,60.23v30.34c0,19.63-6.34,36.98-19.02,52.07-12.68,15.1-28.53,25.21-47.55,30.34l-102.34,26.72v96.9h-67.02v-321.51Zm67.02,67.47v87.39l92.83-24c6.03-4.22,9.06-9.35,9.06-15.39v-30.34c0-4.83-1.74-8.98-5.21-12.45-3.48-3.47-7.63-5.21-12.45-5.21h-84.23Z"/>
    <path class="cls-1" d="M757.12,1451.98h-111.39c-5.14,0-9.44,1.74-12.91,5.21-3.47,3.47-5.21,7.78-5.21,12.91v68.83l98.72-26.26v69.28l-98.72,25.81v14.04c0,4.83,1.81,8.99,5.43,12.45,3.62,3.47,7.85,5.21,12.68,5.21h111.85v67.47h-111.85c-23.55,0-43.63-8.3-60.23-24.91-16.61-16.6-24.91-36.68-24.91-60.23v-151.7c0-23.24,8.22-43.17,24.68-59.77,16.45-16.6,36.6-24.91,60.45-24.91h111.39v66.57Z"/>
    <path class="cls-1" d="M1002.55,1451.98h-111.39c-5.14,0-9.44,1.74-12.91,5.21-3.47,3.47-5.21,7.78-5.21,12.91v68.83l98.72-26.26v69.28l-98.72,25.81v14.04c0,4.83,1.81,8.99,5.43,12.45,3.62,3.47,7.85,5.21,12.68,5.21h111.85v67.47h-111.85c-23.55,0-43.63-8.3-60.23-24.91-16.61-16.6-24.91-36.68-24.91-60.23v-151.7c0-23.24,8.22-43.17,24.68-59.77,16.45-16.6,36.6-24.91,60.45-24.91h111.39v66.57Z"/>
    <path class="cls-1" d="M1051.46,1385.41h145.36c23.55,0,43.62,8.31,60.23,24.91,16.6,16.6,24.91,36.53,24.91,59.77v152.6c0,23.25-8.31,43.1-24.91,59.55-16.6,16.46-36.68,24.68-60.23,24.68h-145.36v-321.51Zm67.02,67.47v187.02h78.34c4.83,0,9.06-1.73,12.68-5.21,3.62-3.47,5.43-7.47,5.43-12v-152.6c0-4.53-1.81-8.53-5.43-12-3.62-3.47-7.85-5.21-12.68-5.21h-78.34Z"/>
    <path class="cls-1" d="M1409.19,1385.41h61.13c23.24,0,43.17,8.38,59.77,25.13,16.6,16.75,24.91,36.76,24.91,60v151.7c0,23.25-8.3,43.17-24.91,59.77-16.6,16.61-36.53,24.91-59.77,24.91h-61.13c-23.25,0-43.17-8.3-59.77-24.91-16.61-16.6-24.91-36.52-24.91-59.77v-151.7c0-23.24,8.3-43.25,24.91-60,16.6-16.76,36.52-25.13,59.77-25.13Zm61.13,67.47h-61.13c-4.83,0-8.99,1.74-12.45,5.21-3.48,3.47-5.21,7.63-5.21,12.45v151.7c0,4.83,1.73,8.99,5.21,12.45,3.47,3.47,7.62,5.21,12.45,5.21h61.13c4.83,0,8.98-1.73,12.45-5.21,3.47-3.47,5.21-7.62,5.21-12.45v-151.7c0-4.83-1.74-8.98-5.21-12.45-3.47-3.47-7.63-5.21-12.45-5.21Z"/>
  </g>
  <g>
    <path class="cls-1" d="M.68,1888.29l4.58-8.08c7,6.87,16.43,11.85,29.62,11.85,11.31,0,23.16-4.98,23.16-15.75,0-9.96-11.31-12.93-22.49-15.75-15.62-3.91-31.24-8.89-31.24-25.04s14.95-23.56,30.57-23.56c10.77,0,20.6,2.69,29.35,9.69l-4.44,8.21c-7.81-6.06-16.56-8.08-24.91-8.08s-19.66,4.04-19.66,13.73c0,9.02,9.96,11.98,21.68,14.94,16.16,4.04,32.45,9.56,32.45,25.85,0,17.91-17.91,25.58-34.6,25.58s-27.74-6.87-34.06-13.6Z"/>
    <path class="cls-1" d="M220.7,1813.29h65.98v9.42h-55.2v26.53h51.7v9.29h-51.7v32.58h57.23v9.43h-68v-87.25Z"/>
    <path class="cls-1" d="M438.04,1813.29h35.81c24.24,0,37.43,14.68,37.43,32.85,0,12.52-7.27,23.83-20.06,28.95l20.74,25.45h-12.79l-17.77-22.49c-2.29,.4-5.52,.67-8.48,.67h-24.1v21.81h-10.77v-87.25Zm36.62,56.15c14.81,0,25.31-10.5,25.31-23.3s-10.37-23.56-25.18-23.56h-25.99v46.86h25.85Z"/>
    <path class="cls-1" d="M651.06,1813.29h11.04l26.93,59.51c2.15,4.85,5.66,15.35,5.66,15.35,0,0,3.64-10.37,5.79-15.35l26.93-59.51h11.04l-38.78,87.79h-9.83l-38.78-87.79Z"/>
    <path class="cls-1" d="M885.08,1813.29h10.77v87.25h-10.77v-87.25Z"/>
    <path class="cls-1" d="M1047.34,1856.78c0-24.91,19.52-44.84,45.51-44.84,11.58,0,22.22,4.17,30.03,11.18l-6.33,7.27c-6.6-5.66-14.41-8.62-23.03-8.62-20.2,0-35.01,15.75-35.01,35.01s14.81,35.28,34.34,35.28c10.1,0,19.25-4.04,25.58-10.77l6.73,7.41c-8.08,8.08-19.39,13.2-32.32,13.2-25.99,0-45.51-19.93-45.51-45.11Z"/>
    <path class="cls-1" d="M1272.48,1813.29h65.98v9.42h-55.2v26.53h51.7v9.29h-51.7v32.58h57.23v9.43h-68v-87.25Z"/>
    <path class="cls-1" d="M1486.04,1888.29l4.58-8.08c7,6.87,16.43,11.85,29.62,11.85,11.31,0,23.16-4.98,23.16-15.75,0-9.96-11.31-12.93-22.49-15.75-15.62-3.91-31.24-8.89-31.24-25.04s14.94-23.56,30.56-23.56c10.77,0,20.6,2.69,29.35,9.69l-4.44,8.21c-7.81-6.06-16.56-8.08-24.91-8.08s-19.66,4.04-19.66,13.73c0,9.02,9.96,11.98,21.68,14.94,16.16,4.04,32.45,9.56,32.45,25.85,0,17.91-17.91,25.58-34.6,25.58s-27.74-6.87-34.07-13.6Z"/>
  </g>
</svg>